<?xml version="1.0" standalone="no"?>
<!DOCTYPE svg PUBLIC "-//W3C//DTD SVG 20010904//EN"
 "http://www.w3.org/TR/2001/REC-SVG-20010904/DTD/svg10.dtd">
<svg version="1.0" xmlns="http://www.w3.org/2000/svg"
 width="512.000000pt" height="512.000000pt" viewBox="0 0 512.000000 512.000000"
 preserveAspectRatio="xMidYMid meet">
<metadata>
Created by potrace 1.11, written by Peter Selinger 2001-2013
</metadata>
<g transform="translate(0.000000,512.000000) scale(0.100000,-0.100000)"
fill="#000000" stroke="none">
<path d="M565 5080 l-40 -5 1 -2520 c1 -1386 2 -2523 3 -2526 1 -3 259 -6 574
-6 l572 0 0 1648 c0 906 3 1645 8 1642 4 -2 7 -10 5 -16 -2 -11 8 -92 18 -142
2 -11 6 -40 9 -65 4 -25 13 -88 20 -140 8 -52 17 -112 20 -132 3 -21 7 -53 10
-70 6 -37 42 -285 49 -338 3 -19 15 -100 26 -180 12 -80 23 -156 25 -170 2
-14 6 -47 10 -75 4 -27 9 -60 10 -72 2 -13 6 -42 10 -65 4 -24 8 -54 10 -68 2
-14 6 -45 10 -70 4 -25 8 -56 10 -70 17 -117 27 -190 31 -215 3 -16 7 -42 9
-56 3 -26 23 -165 30 -209 10 -61 47 -318 51 -350 2 -19 6 -46 9 -60 4 -22 7
-47 20 -140 2 -14 7 -52 11 -85 3 -33 8 -62 9 -65 3 -5 18 -105 30 -202 2 -18
9 -64 16 -103 6 -38 13 -79 14 -90 1 -11 3 -25 4 -31 1 -8 121 -11 408 -10
l408 1 12 85 c17 119 22 158 28 211 3 26 7 55 9 65 2 11 7 44 11 74 3 30 8 66
10 80 2 14 9 63 15 110 10 82 14 112 25 182 2 18 16 121 31 228 14 107 27 204
29 215 1 11 6 47 9 80 4 33 9 71 11 85 2 14 7 45 10 70 4 25 8 56 10 70 8 58
15 108 20 148 7 61 16 123 20 152 7 43 27 194 30 225 2 17 6 44 9 60 3 17 8
57 11 90 3 33 8 67 10 75 2 8 11 71 20 140 9 69 18 136 20 150 2 14 7 49 10
79 4 30 8 61 10 70 4 26 20 144 30 230 4 30 9 64 11 75 2 12 11 83 21 159 9
75 19 137 22 137 3 0 6 -753 6 -1673 l0 -1674 575 0 575 0 0 2523 c0 1387 -3
2526 -7 2529 -5 6 -1560 10 -1690 6 -17 -1 -23 -19 -33 -106 -3 -27 -12 -99
-20 -160 -8 -60 -17 -135 -20 -165 -3 -30 -8 -62 -10 -70 -2 -8 -6 -46 -10
-83 -3 -37 -8 -76 -10 -86 -2 -10 -6 -42 -10 -72 -3 -30 -8 -65 -10 -79 -3
-14 -7 -47 -10 -75 -7 -67 -14 -123 -20 -165 -3 -19 -8 -57 -11 -85 -3 -27 -7
-61 -9 -75 -4 -23 -19 -143 -30 -232 -10 -79 -15 -117 -30 -233 -16 -119 -18
-140 -30 -244 -4 -30 -8 -61 -10 -70 -1 -9 -6 -45 -10 -81 -4 -36 -9 -74 -11
-85 -2 -11 -7 -51 -10 -90 -5 -64 -19 -109 -20 -67 -1 9 -4 37 -8 62 -16 104
-26 168 -31 215 -3 28 -8 61 -10 75 -3 14 -7 45 -10 70 -3 25 -7 56 -10 70 -2
14 -7 45 -10 70 -3 25 -8 56 -10 70 -3 14 -7 45 -10 70 -3 25 -7 56 -10 70 -2
14 -7 45 -10 70 -4 25 -8 56 -10 70 -9 62 -34 241 -40 296 -3 22 -7 50 -10 64
-2 14 -7 43 -10 65 -2 22 -16 121 -30 220 -14 99 -28 196 -31 215 -3 19 -7 46
-9 60 -2 14 -7 45 -10 70 -3 25 -15 97 -25 160 -10 63 -22 135 -25 160 -9 69
-16 100 -23 101 -39 3 -1627 3 -1657 -1z"/>
</g>
</svg>
