<?xml version="1.0" encoding="iso-8859-1"?>
<!-- Generator: Adobe Illustrator 19.0.0, SVG Export Plug-In . SVG Version: 6.00 Build 0)  -->
<svg version="1.1" id="Capa_1" xmlns="http://www.w3.org/2000/svg" xmlns:xlink="http://www.w3.org/1999/xlink" x="0px" y="0px"
	 viewBox="0 0 512 512" style="enable-background:new 0 0 512 512;" xml:space="preserve">
<g>
	<g>
		<path d="M481,482V150H361v332h-30V240H211v242h-30V330H61v152H30V0H0v512h512v-30H481z M151,482H91V360h60V482z M301,482h-60V270
			h60V482z M451,482h-60V180h60V482z"/>
	</g>
</g>
<g>
	<g>
		<path d="M421,0c-24.813,0-45,20.187-45,45c0,3.07,0.311,6.068,0.9,8.967l-77.255,46.353C291.857,93.877,281.873,90,271,90
			c-24.813,0-45,20.187-45,45c0,3.07,0.311,6.068,0.9,8.967l-77.255,46.353C141.857,183.877,131.873,180,121,180
			c-24.813,0-45,20.187-45,45s20.187,45,45,45s45-20.187,45-45c0-3.07-0.311-6.068-0.9-8.967l77.255-46.353
			C250.143,176.123,260.127,180,271,180c24.813,0,45-20.187,45-45c0-3.07-0.311-6.068-0.9-8.967l77.255-46.353
			C400.143,86.123,410.127,90,421,90c24.813,0,45-20.187,45-45S445.813,0,421,0z M121,240c-8.271,0-15-6.729-15-15s6.729-15,15-15
			s15,6.729,15,15S129.271,240,121,240z M271,150c-8.271,0-15-6.729-15-15s6.729-15,15-15s15,6.729,15,15S279.271,150,271,150z
			 M421,60c-8.271,0-15-6.729-15-15s6.729-15,15-15s15,6.729,15,15S429.271,60,421,60z"/>
	</g>
</g>
<g>
</g>
<g>
</g>
<g>
</g>
<g>
</g>
<g>
</g>
<g>
</g>
<g>
</g>
<g>
</g>
<g>
</g>
<g>
</g>
<g>
</g>
<g>
</g>
<g>
</g>
<g>
</g>
<g>
</g>
</svg>
