<?xml version="1.0" encoding="utf-8"?>
<!-- Generator: Adobe Illustrator 27.0.1, SVG Export Plug-In . SVG Version: 6.00 Build 0)  -->
<svg version="1.1" id="Layer_1" xmlns="http://www.w3.org/2000/svg" xmlns:xlink="http://www.w3.org/1999/xlink" x="0px" y="0px"
	 viewBox="0 0 512 512" style="enable-background:new 0 0 512 512;" xml:space="preserve">
<path d="M104.5,439.5l29.9,29.9l29.9-29.9l-29.9-29.9l29.9-29.9l29.9,29.9l29.9-29.9l-29.9-29.9l121.6-119.5
	c46.9,29.9,110.9,21.3,145.1-27.7c23.5-34.1,25.6-81.1,2.1-115.2c-38.4-57.6-117.3-64-164.3-17.1c-36.3,36.3-40.5,89.6-12.8,130.1
	l-226.1,224c-8.5,8.5-8.5,21.3,0,29.9s21.3,8.5,29.9,0L104.5,439.5z M330.7,102.4c25.6-23.5,64-23.5,89.6,0s25.6,64,0,87.5
	s-64,23.5-89.6,0C305.1,166.4,305.1,125.9,330.7,102.4L330.7,102.4z"/>
</svg>
