<?xml version="1.0" encoding="utf-8"?>
<!-- Generator: Adobe Illustrator 27.0.1, SVG Export Plug-In . SVG Version: 6.00 Build 0)  -->
<svg version="1.1" id="Layer_1" xmlns="http://www.w3.org/2000/svg" xmlns:xlink="http://www.w3.org/1999/xlink" x="0px" y="0px"
	 viewBox="0 0 24.9 26.8" style="enable-background:new 0 0 24.9 26.8;" xml:space="preserve">
<path id="Path_7226" d="M23.7,16.1l-1.8-1.5c0.2-1,0.2-2.1,0-3.1l1.8-1.5C24,9.8,24.1,9.4,23.9,9l0-0.1c-0.5-1.4-1.2-2.6-2.1-3.7
	l0-0.1C21.5,5,21.1,4.9,20.8,5l-2.2,0.8c-0.8-0.7-1.7-1.2-2.7-1.5l-0.4-2.3c-0.1-0.4-0.3-0.6-0.7-0.7l-0.1,0c-1.4-0.3-2.9-0.3-4.3,0
	l-0.1,0c-0.4,0.1-0.6,0.3-0.7,0.7L9.3,4.2c-1,0.4-1.9,0.9-2.7,1.5L4.5,5C4.1,4.8,3.7,5,3.5,5.2l0,0.1C2.5,6.4,1.8,7.6,1.3,9l0,0.1
	c-0.1,0.3,0,0.7,0.2,0.9l1.8,1.5c-0.2,1-0.2,2,0,3.1l-1.8,1.5c-0.3,0.2-0.4,0.6-0.2,0.9l0,0.1c0.5,1.3,1.2,2.6,2.1,3.7l0,0.1
	c0.2,0.3,0.6,0.4,0.9,0.3l2.2-0.8c0.8,0.7,1.7,1.2,2.7,1.5l0.4,2.3c0.1,0.4,0.3,0.6,0.7,0.7l0.1,0c1.4,0.3,2.9,0.3,4.3,0l0.1,0
	c0.4-0.1,0.6-0.3,0.7-0.7l0.4-2.3c1-0.4,1.9-0.9,2.7-1.5l2.2,0.8c0.3,0.1,0.7,0,0.9-0.3l0-0.1c0.9-1.1,1.7-2.3,2.1-3.7l0-0.1
	C24,16.7,24,16.3,23.7,16.1z M20,11.8c0.1,0.8,0.1,1.7,0,2.5l-0.2,1.1l2,1.7c-0.3,0.7-0.7,1.4-1.1,2l-2.5-0.9l-0.8,0.7
	c-0.6,0.5-1.4,0.9-2.1,1.2l-1,0.4L13.8,23c-0.8,0.1-1.5,0.1-2.3,0L11,20.4l-1-0.4c-0.8-0.3-1.5-0.7-2.1-1.2L7,18.1L4.5,19
	c-0.5-0.6-0.8-1.3-1.1-2l2-1.7l-0.2-1.1c-0.1-0.4-0.1-0.8-0.1-1.2c0-0.4,0-0.8,0.1-1.2l0.2-1.1L3.4,9c0.3-0.7,0.7-1.4,1.1-2L7,7.9
	l0.8-0.7C8.5,6.7,9.2,6.3,10,6l1-0.4L11.5,3C12.2,3,13,3,13.8,3l0.5,2.6l1,0.4c0.8,0.3,1.5,0.7,2.1,1.2l0.8,0.7l2.5-0.9
	c0.5,0.6,0.8,1.3,1.1,2l-2,1.7L20,11.8z M12.6,8.1c-2.6,0-4.7,2.1-4.7,4.7s2.1,4.7,4.7,4.7s4.7-2.1,4.7-4.7
	C17.3,10.2,15.2,8.1,12.6,8.1C12.6,8.1,12.6,8.1,12.6,8.1L12.6,8.1z M14.7,14.9c-1.2,1.2-3.1,1.2-4.2,0s-1.2-3.1,0-4.2
	s3.1-1.2,4.2,0c0.6,0.6,0.9,1.3,0.9,2.1C15.6,13.6,15.3,14.3,14.7,14.9L14.7,14.9z"/>
</svg>
