<?xml version="1.0" encoding="utf-8"?>
<!-- Generator: Adobe Illustrator 27.0.1, SVG Export Plug-In . SVG Version: 6.00 Build 0)  -->
<svg version="1.1" id="Layer_1" xmlns="http://www.w3.org/2000/svg" xmlns:xlink="http://www.w3.org/1999/xlink" x="0px" y="0px"
	 viewBox="0 0 23.6 26.6" style="enable-background:new 0 0 23.6 26.6;" xml:space="preserve">
<style type="text/css">
	.st0{clip-path:url(#SVGID_00000131348959037921068050000009165437046230949266_);}
</style>
<g>
	<defs>
		<rect id="SVGID_1_" x="0.6" y="1.5" width="21.9" height="24"/>
	</defs>
	<clipPath id="SVGID_00000024713865609446827180000016093999936967006898_">
		<use xlink:href="#SVGID_1_"  style="overflow:visible;"/>
	</clipPath>
	
		<g id="Group_3090_00000060728161588725883440000008583560859346284694_" style="clip-path:url(#SVGID_00000024713865609446827180000016093999936967006898_);">
		<path id="Path_7237_00000181795849917222986150000002568873067920545445_" d="M8,9.2c0.6,0,1.1-0.5,1.1-1.1V5.3
			c0-0.9,0.7-1.6,1.6-1.6h7.9c0.9,0,1.6,0.7,1.6,1.6v16.3c0,0.9-0.7,1.6-1.6,1.6h-7.9c-0.9,0-1.6-0.7-1.6-1.6v-2.4
			c0-0.6-0.5-1.1-1.1-1.2s-1.1,0.5-1.2,1.1c0,0,0,0,0,0.1v2.4c0,2.1,1.7,3.8,3.8,3.8h7.9c2.1,0,3.8-1.7,3.8-3.8V5.3
			c0-2.1-1.7-3.8-3.8-3.8h-7.9c-2.1,0-3.8,1.7-3.8,3.8v2.7C6.9,8.7,7.4,9.2,8,9.2"/>
		<path id="Path_7238_00000041269643402991563340000013657610178862706619_" d="M17.4,12.7l-4-4c-0.4-0.4-1.1-0.4-1.6,0
			c-0.4,0.4-0.5,1.2,0,1.6c0,0,0,0,0,0l2.1,2.1H4.1c-0.6,0-1.1,0.5-1.1,1.2c0,0.6,0.5,1.1,1.1,1.1h9.8l-2.1,2.1
			c-0.4,0.4-0.5,1.1,0,1.6s1.1,0.5,1.6,0c0,0,0,0,0,0l4-4C17.8,13.9,17.8,13.1,17.4,12.7L17.4,12.7z"/>
	</g>
</g>
</svg>
