<svg id="Icons" height="512" viewBox="0 0 60 60" width="512" xmlns="http://www.w3.org/2000/svg"><path d="m1.955 45.014a9.274 9.274 0 0 0 6.767 14.97c.178.016.359.016.539.016a9.263 9.263 0 0 0 9.016-7.062 13.39 13.39 0 0 1 3.667-6.163l20.581-20.567a13.43 13.43 0 0 0 17.293-15.008 2.3 2.3 0 0 0 -3.886-1.231l-4.664 4.661a1.064 1.064 0 0 1 -.872.3l-3.943-.43a1.1 1.1 0 0 1 -.955-.946l-.434-3.944a1.085 1.085 0 0 1 .3-.879l4.666-4.665a2.3 2.3 0 0 0 -1.246-3.885 13.437 13.437 0 0 0 -11.859 3.919 13.574 13.574 0 0 0 -3.114 13.354l-20.636 20.636a14.107 14.107 0 0 1 -6.32 3.672 9.305 9.305 0 0 0 -4.9 3.252zm12.634-5.514 21.073-21.07a1 1 0 0 0 .234-1.047 11.571 11.571 0 0 1 2.467-11.891 11.423 11.423 0 0 1 10.091-3.339.3.3 0 0 1 .164.5l-4.666 4.664a3.081 3.081 0 0 0 -.877 2.5l.436 3.959a3.084 3.084 0 0 0 2.715 2.707l3.945.434a3.043 3.043 0 0 0 2.51-.875l4.665-4.664a.284.284 0 0 1 .3-.069.27.27 0 0 1 .2.216 11.43 11.43 0 0 1 -15.246 12.597 1 1 0 0 0 -1.052.232l-21.018 21.007a15.368 15.368 0 0 0 -4.2 7.1 7.277 7.277 0 1 1 -8.962-8.771 16.1 16.1 0 0 0 7.221-4.19z"/><path d="m5.635 54.359a5.14 5.14 0 1 0 0-7.272 5.142 5.142 0 0 0 0 7.27zm1.411-5.859a3.14 3.14 0 1 1 0 4.439 3.143 3.143 0 0 1 0-4.439z"/><path d="m17.5 43.5a1 1 0 0 0 .707-.293l19.5-19.5a1 1 0 0 0 -1.414-1.414l-19.5 19.5a1 1 0 0 0 .707 1.707z"/></svg>