<svg height="512" viewBox="0 0 96 96" width="512" xmlns="http://www.w3.org/2000/svg"><g id="Layer_4"><g><path d="m37.866 83.131h-11.297c-1.29 0-2.337 1.046-2.337 2.337s1.046 2.337 2.337 2.337h44.398c1.29 0 2.337-1.046 2.337-2.337s-1.046-2.337-2.337-2.337h-12.803s-2.049-14.09-2.065-14.161h21.799c5.162 0 9.347-4.185 9.347-9.347v-42.081c0-5.162-4.185-9.347-9.347-9.347h-59.796c-5.162 0-9.347 4.185-9.347 9.347v42.082c0 5.162 4.185 9.347 9.347 9.347h21.829c-.017.07-2.065 14.16-2.065 14.16zm4.72 0s2.143-13.886 2.078-14.161h6.765c-.064.275 2.014 14.161 2.014 14.161zm-29.157-65.589c0-2.577 2.097-4.673 4.673-4.673h59.796c2.577 0 4.673 2.096 4.673 4.673v35.212h-69.142zm4.673 46.755c-2.577 0-4.673-2.096-4.673-4.673v-2.196h69.143v2.196c0 2.577-2.097 4.673-4.673 4.673z"/><path d="m57.864 30.109-12.231-9.166c-.828-.615-1.79-.94-2.783-.94-2.535 0-4.597 2.129-4.597 4.746v18.32c0 2.617 2.062 4.746 4.597 4.746.993 0 1.955-.325 2.797-.952l12.115-9.15c1.228-.914 1.961-2.366 1.961-3.885 0-1.484-.68-2.842-1.859-3.719zm-14.938 12.949-.089-18.369 12.122 9.285z"/></g></g></svg>