<svg height="512" viewBox="0 0 512 512" width="512" xmlns="http://www.w3.org/2000/svg"><g id="ARROW_48" data-name="ARROW 48"><path d="m307.69 347.47a24 24 0 0 0 -24 24v58.47a33.93 33.93 0 0 1 -33.89 33.9h-167.74a33.93 33.93 0 0 1 -33.89-33.9v-347.88a33.93 33.93 0 0 1 33.89-33.9h167.74a33.93 33.93 0 0 1 33.89 33.9v50.54a24 24 0 0 0 48 0v-50.54a82 82 0 0 0 -81.89-81.9h-167.74a82 82 0 0 0 -81.89 81.9v347.88a82 82 0 0 0 81.89 81.9h167.74a82 82 0 0 0 81.89-81.9v-58.47a24 24 0 0 0 -24-24z"/><path d="m504.77 238.53-85.41-85.35a24 24 0 0 0 -33.6-.33c-9.7 9.33-9.47 25.13.05 34.65l44.47 44.5h-208a24 24 0 0 0 -24 24 24 24 0 0 0 24 24h208l-44.9 44.9a24 24 0 0 0 33.94 33.95l85.45-85.41a24.66 24.66 0 0 0 0-34.91z"/></g></svg>